<svg width="502" height="297" viewBox="0 0 502 297" fill="none" xmlns="http://www.w3.org/2000/svg">
<rect width="502" height="297" fill="#F5F5F5"/>
<rect width="499.544" height="296.024" fill="#333255"/>
<path d="M122.413 117.132L10.6294 97.7139L108.642 12.2602L122.413 117.132Z" fill="#1E253E" fill-opacity="0.28"/>
<path d="M364.5 196.975L478.182 194.211L401.611 296.842L364.5 196.975Z" fill="#1E253E" fill-opacity="0.28"/>
<line y1="-0.5" x2="234.855" y2="-0.5" transform="matrix(0.726517 0.687149 -0.738674 0.674063 320.291 4.98843)" stroke="#9E9DE1" stroke-opacity="0.42"/>
<line y1="-0.5" x2="234.855" y2="-0.5" transform="matrix(0.726517 0.687149 -0.738674 0.674063 320.291 4.98843)" stroke="black" stroke-opacity="0.2"/>
<line x1="276.342" y1="3.63508" x2="497.342" y2="210.635" stroke="#9E9DE1" stroke-opacity="0.42"/>
<line x1="276.342" y1="3.63508" x2="497.342" y2="210.635" stroke="black" stroke-opacity="0.2"/>
<line x1="247.341" y1="7.63407" x2="492.286" y2="235.712" stroke="#9E9DE1" stroke-opacity="0.42"/>
<line x1="247.341" y1="7.63407" x2="492.286" y2="235.712" stroke="black" stroke-opacity="0.2"/>
<line x1="198.332" y1="7.62598" x2="427.229" y2="210.706" stroke="#9E9DE1" stroke-opacity="0.42"/>
<line x1="198.332" y1="7.62598" x2="427.229" y2="210.706" stroke="black" stroke-opacity="0.2"/>
<line y1="-0.5" x2="412.387" y2="-0.5" transform="matrix(0.731719 0.681606 -0.733536 0.67965 162 8)" stroke="#9E9DE1" stroke-opacity="0.42"/>
<line y1="-0.5" x2="412.387" y2="-0.5" transform="matrix(0.731719 0.681606 -0.733536 0.67965 162 8)" stroke="black" stroke-opacity="0.2"/>
<line x1="123.334" y1="3.62836" x2="303.131" y2="165.45" stroke="#9E9DE1" stroke-opacity="0.42"/>
<line x1="123.334" y1="3.62836" x2="303.131" y2="165.45" stroke="black" stroke-opacity="0.2"/>
<line x1="105.34" y1="10.6331" x2="260.966" y2="154.75" stroke="#9E9DE1" stroke-opacity="0.42"/>
<line x1="105.34" y1="10.6331" x2="260.966" y2="154.75" stroke="black" stroke-opacity="0.2"/>
<path d="M371.166 103.946L417.414 7.42742L484.167 115.814L371.166 103.946Z" fill="#1E253E" fill-opacity="0.28"/>
<path d="M111.765 188.438L99.1276 293.433L0.196925 208.898L111.765 188.438Z" fill="#1E253E" fill-opacity="0.28"/>
<line x1="217.234" y1="258.575" x2="501.729" y2="75.5795" stroke="#919599" stroke-opacity="0.21"/>
<line x1="189.486" y1="248.068" x2="501.734" y2="51.5768" stroke="#919599" stroke-opacity="0.21"/>
<line y1="-0.5" x2="405.658" y2="-0.5" transform="matrix(0.843767 -0.53671 0.593278 0.804998 133.219 269.5)" stroke="#919599" stroke-opacity="0.21"/>
<line y1="-0.5" x2="405.658" y2="-0.5" transform="matrix(0.843767 -0.53671 0.593278 0.804998 80.7977 275.229)" stroke="#919599" stroke-opacity="0.21"/>
<line y1="-0.5" x2="405.658" y2="-0.5" transform="matrix(0.843767 -0.53671 0.593278 0.804998 19.1255 288.598)" stroke="#919599" stroke-opacity="0.21"/>
<path d="M27.5 136L31.429 144.637H44.1435L33.8572 149.975L37.7862 158.613L27.5 153.275L17.2138 158.613L21.1428 149.975L10.8565 144.637H23.571L27.5 136Z" fill="#595A7C"/>
<path d="M27.5 136L31.429 144.637H44.1435L33.8572 149.975L37.7862 158.613L27.5 153.275L17.2138 158.613L21.1428 149.975L10.8565 144.637H23.571L27.5 136Z" fill="#595A7C"/>
<path d="M27.5 136L31.429 144.637H44.1435L33.8572 149.975L37.7862 158.613L27.5 153.275L17.2138 158.613L21.1428 149.975L10.8565 144.637H23.571L27.5 136Z" fill="#595A7C"/>
<path d="M27.5 136L31.429 144.637H44.1435L33.8572 149.975L37.7862 158.613L27.5 153.275L17.2138 158.613L21.1428 149.975L10.8565 144.637H23.571L27.5 136Z" fill="#595A7C"/>
<path d="M27.5 136L31.429 144.637H44.1435L33.8572 149.975L37.7862 158.613L27.5 153.275L17.2138 158.613L21.1428 149.975L10.8565 144.637H23.571L27.5 136Z" fill="#595A7C"/>
<path d="M27.5 136L31.429 144.637H44.1435L33.8572 149.975L37.7862 158.613L27.5 153.275L17.2138 158.613L21.1428 149.975L10.8565 144.637H23.571L27.5 136Z" fill="#595A7C"/>
<path d="M162 123L165.817 131.637H178.168L168.176 136.975L171.992 145.613L162 140.275L152.008 145.613L155.824 136.975L145.832 131.637H158.183L162 123Z" fill="#595A7C"/>
<path d="M162 123L165.817 131.637H178.168L168.176 136.975L171.992 145.613L162 140.275L152.008 145.613L155.824 136.975L145.832 131.637H158.183L162 123Z" fill="#595A7C"/>
<path d="M162 123L165.817 131.637H178.168L168.176 136.975L171.992 145.613L162 140.275L152.008 145.613L155.824 136.975L145.832 131.637H158.183L162 123Z" fill="#595A7C"/>
<path d="M162 123L165.817 131.637H178.168L168.176 136.975L171.992 145.613L162 140.275L152.008 145.613L155.824 136.975L145.832 131.637H158.183L162 123Z" fill="#595A7C"/>
<path d="M162 123L165.817 131.637H178.168L168.176 136.975L171.992 145.613L162 140.275L152.008 145.613L155.824 136.975L145.832 131.637H158.183L162 123Z" fill="#595A7C"/>
<path d="M162 123L165.817 131.637H178.168L168.176 136.975L171.992 145.613L162 140.275L152.008 145.613L155.824 136.975L145.832 131.637H158.183L162 123Z" fill="#595A7C"/>
<path d="M333.5 121L337.429 129.292H350.143L339.857 134.416L343.786 142.708L333.5 137.584L323.214 142.708L327.143 134.416L316.856 129.292H329.571L333.5 121Z" fill="#595A7C"/>
<path d="M333.5 121L337.429 129.292H350.143L339.857 134.416L343.786 142.708L333.5 137.584L323.214 142.708L327.143 134.416L316.856 129.292H329.571L333.5 121Z" fill="#595A7C"/>
<path d="M333.5 121L337.429 129.292H350.143L339.857 134.416L343.786 142.708L333.5 137.584L323.214 142.708L327.143 134.416L316.856 129.292H329.571L333.5 121Z" fill="#595A7C"/>
<path d="M333.5 121L337.429 129.292H350.143L339.857 134.416L343.786 142.708L333.5 137.584L323.214 142.708L327.143 134.416L316.856 129.292H329.571L333.5 121Z" fill="#595A7C"/>
<path d="M333.5 121L337.429 129.292H350.143L339.857 134.416L343.786 142.708L333.5 137.584L323.214 142.708L327.143 134.416L316.856 129.292H329.571L333.5 121Z" fill="#595A7C"/>
<path d="M333.5 121L337.429 129.292H350.143L339.857 134.416L343.786 142.708L333.5 137.584L323.214 142.708L327.143 134.416L316.856 129.292H329.571L333.5 121Z" fill="#595A7C"/>
<path d="M358.5 27L362.429 35.6373H375.143L364.857 40.9754L368.786 49.6127L358.5 44.2746L348.214 49.6127L352.143 40.9754L341.856 35.6373H354.571L358.5 27Z" fill="#595A7C"/>
<path d="M358.5 27L362.429 35.6373H375.143L364.857 40.9754L368.786 49.6127L358.5 44.2746L348.214 49.6127L352.143 40.9754L341.856 35.6373H354.571L358.5 27Z" fill="#595A7C"/>
<path d="M358.5 27L362.429 35.6373H375.143L364.857 40.9754L368.786 49.6127L358.5 44.2746L348.214 49.6127L352.143 40.9754L341.856 35.6373H354.571L358.5 27Z" fill="#595A7C"/>
<path d="M358.5 27L362.429 35.6373H375.143L364.857 40.9754L368.786 49.6127L358.5 44.2746L348.214 49.6127L352.143 40.9754L341.856 35.6373H354.571L358.5 27Z" fill="#595A7C"/>
<path d="M358.5 27L362.429 35.6373H375.143L364.857 40.9754L368.786 49.6127L358.5 44.2746L348.214 49.6127L352.143 40.9754L341.856 35.6373H354.571L358.5 27Z" fill="#595A7C"/>
<path d="M358.5 27L362.429 35.6373H375.143L364.857 40.9754L368.786 49.6127L358.5 44.2746L348.214 49.6127L352.143 40.9754L341.856 35.6373H354.571L358.5 27Z" fill="#595A7C"/>
<path d="M162 218L165.817 226.637H178.168L168.176 231.975L171.992 240.613L162 235.275L152.008 240.613L155.824 231.975L145.832 226.637H158.183L162 218Z" fill="#595A7C"/>
<path d="M162 218L165.817 226.637H178.168L168.176 231.975L171.992 240.613L162 235.275L152.008 240.613L155.824 231.975L145.832 226.637H158.183L162 218Z" fill="#595A7C"/>
<path d="M162 218L165.817 226.637H178.168L168.176 231.975L171.992 240.613L162 235.275L152.008 240.613L155.824 231.975L145.832 226.637H158.183L162 218Z" fill="#595A7C"/>
<path d="M162 218L165.817 226.637H178.168L168.176 231.975L171.992 240.613L162 235.275L152.008 240.613L155.824 231.975L145.832 226.637H158.183L162 218Z" fill="#595A7C"/>
<path d="M162 218L165.817 226.637H178.168L168.176 231.975L171.992 240.613L162 235.275L152.008 240.613L155.824 231.975L145.832 226.637H158.183L162 218Z" fill="#595A7C"/>
<path d="M162 218L165.817 226.637H178.168L168.176 231.975L171.992 240.613L162 235.275L152.008 240.613L155.824 231.975L145.832 226.637H158.183L162 218Z" fill="#595A7C"/>
<path d="M169.5 31L173.429 39.6373H186.143L175.857 44.9754L179.786 53.6127L169.5 48.2746L159.214 53.6127L163.143 44.9754L152.857 39.6373H165.571L169.5 31Z" fill="#595A7C"/>
<path d="M169.5 31L173.429 39.6373H186.143L175.857 44.9754L179.786 53.6127L169.5 48.2746L159.214 53.6127L163.143 44.9754L152.857 39.6373H165.571L169.5 31Z" fill="#595A7C"/>
<path d="M169.5 31L173.429 39.6373H186.143L175.857 44.9754L179.786 53.6127L169.5 48.2746L159.214 53.6127L163.143 44.9754L152.857 39.6373H165.571L169.5 31Z" fill="#595A7C"/>
<path d="M169.5 31L173.429 39.6373H186.143L175.857 44.9754L179.786 53.6127L169.5 48.2746L159.214 53.6127L163.143 44.9754L152.857 39.6373H165.571L169.5 31Z" fill="#595A7C"/>
<path d="M169.5 31L173.429 39.6373H186.143L175.857 44.9754L179.786 53.6127L169.5 48.2746L159.214 53.6127L163.143 44.9754L152.857 39.6373H165.571L169.5 31Z" fill="#595A7C"/>
<path d="M169.5 31L173.429 39.6373H186.143L175.857 44.9754L179.786 53.6127L169.5 48.2746L159.214 53.6127L163.143 44.9754L152.857 39.6373H165.571L169.5 31Z" fill="#595A7C"/>
<path d="M452.5 128L456.429 136.637H469.143L458.857 141.975L462.786 150.613L452.5 145.275L442.214 150.613L446.143 141.975L435.856 136.637H448.571L452.5 128Z" fill="#595A7C"/>
<path d="M452.5 128L456.429 136.637H469.143L458.857 141.975L462.786 150.613L452.5 145.275L442.214 150.613L446.143 141.975L435.856 136.637H448.571L452.5 128Z" fill="#595A7C"/>
<path d="M452.5 128L456.429 136.637H469.143L458.857 141.975L462.786 150.613L452.5 145.275L442.214 150.613L446.143 141.975L435.856 136.637H448.571L452.5 128Z" fill="#595A7C"/>
<path d="M452.5 128L456.429 136.637H469.143L458.857 141.975L462.786 150.613L452.5 145.275L442.214 150.613L446.143 141.975L435.856 136.637H448.571L452.5 128Z" fill="#595A7C"/>
<path d="M452.5 128L456.429 136.637H469.143L458.857 141.975L462.786 150.613L452.5 145.275L442.214 150.613L446.143 141.975L435.856 136.637H448.571L452.5 128Z" fill="#595A7C"/>
<path d="M452.5 128L456.429 136.637H469.143L458.857 141.975L462.786 150.613L452.5 145.275L442.214 150.613L446.143 141.975L435.856 136.637H448.571L452.5 128Z" fill="#595A7C"/>
<path d="M323.5 261L327.429 269.637H340.143L329.857 274.975L333.786 283.613L323.5 278.275L313.214 283.613L317.143 274.975L306.856 269.637H319.571L323.5 261Z" fill="#595A7C"/>
<path d="M323.5 261L327.429 269.637H340.143L329.857 274.975L333.786 283.613L323.5 278.275L313.214 283.613L317.143 274.975L306.856 269.637H319.571L323.5 261Z" fill="#595A7C"/>
<path d="M323.5 261L327.429 269.637H340.143L329.857 274.975L333.786 283.613L323.5 278.275L313.214 283.613L317.143 274.975L306.856 269.637H319.571L323.5 261Z" fill="#595A7C"/>
<path d="M323.5 261L327.429 269.637H340.143L329.857 274.975L333.786 283.613L323.5 278.275L313.214 283.613L317.143 274.975L306.856 269.637H319.571L323.5 261Z" fill="#595A7C"/>
<path d="M323.5 261L327.429 269.637H340.143L329.857 274.975L333.786 283.613L323.5 278.275L313.214 283.613L317.143 274.975L306.856 269.637H319.571L323.5 261Z" fill="#595A7C"/>
<path d="M323.5 261L327.429 269.637H340.143L329.857 274.975L333.786 283.613L323.5 278.275L313.214 283.613L317.143 274.975L306.856 269.637H319.571L323.5 261Z" fill="#595A7C"/>
<path d="M27.5 20L31.429 28.6373H44.1435L33.8572 33.9754L37.7862 42.6127L27.5 37.2746L17.2138 42.6127L21.1428 33.9754L10.8565 28.6373H23.571L27.5 20Z" fill="#595A7C"/>
<path d="M27.5 20L31.429 28.6373H44.1435L33.8572 33.9754L37.7862 42.6127L27.5 37.2746L17.2138 42.6127L21.1428 33.9754L10.8565 28.6373H23.571L27.5 20Z" fill="#595A7C"/>
<path d="M27.5 20L31.429 28.6373H44.1435L33.8572 33.9754L37.7862 42.6127L27.5 37.2746L17.2138 42.6127L21.1428 33.9754L10.8565 28.6373H23.571L27.5 20Z" fill="#595A7C"/>
<path d="M27.5 20L31.429 28.6373H44.1435L33.8572 33.9754L37.7862 42.6127L27.5 37.2746L17.2138 42.6127L21.1428 33.9754L10.8565 28.6373H23.571L27.5 20Z" fill="#595A7C"/>
<path d="M27.5 20L31.429 28.6373H44.1435L33.8572 33.9754L37.7862 42.6127L27.5 37.2746L17.2138 42.6127L21.1428 33.9754L10.8565 28.6373H23.571L27.5 20Z" fill="#595A7C"/>
<path d="M27.5 20L31.429 28.6373H44.1435L33.8572 33.9754L37.7862 42.6127L27.5 37.2746L17.2138 42.6127L21.1428 33.9754L10.8565 28.6373H23.571L27.5 20Z" fill="#595A7C"/>
<path d="M19.5 257L23.429 265.637H36.1435L25.8572 270.975L29.7862 279.613L19.5 274.275L9.21376 279.613L13.1428 270.975L2.85651 265.637H15.571L19.5 257Z" fill="#595A7C"/>
<path d="M19.5 257L23.429 265.637H36.1435L25.8572 270.975L29.7862 279.613L19.5 274.275L9.21376 279.613L13.1428 270.975L2.85651 265.637H15.571L19.5 257Z" fill="#595A7C"/>
<path d="M19.5 257L23.429 265.637H36.1435L25.8572 270.975L29.7862 279.613L19.5 274.275L9.21376 279.613L13.1428 270.975L2.85651 265.637H15.571L19.5 257Z" fill="#595A7C"/>
<path d="M19.5 257L23.429 265.637H36.1435L25.8572 270.975L29.7862 279.613L19.5 274.275L9.21376 279.613L13.1428 270.975L2.85651 265.637H15.571L19.5 257Z" fill="#595A7C"/>
<path d="M19.5 257L23.429 265.637H36.1435L25.8572 270.975L29.7862 279.613L19.5 274.275L9.21376 279.613L13.1428 270.975L2.85651 265.637H15.571L19.5 257Z" fill="#595A7C"/>
<path d="M19.5 257L23.429 265.637H36.1435L25.8572 270.975L29.7862 279.613L19.5 274.275L9.21376 279.613L13.1428 270.975L2.85651 265.637H15.571L19.5 257Z" fill="#595A7C"/>
<path d="M464.5 257L468.429 265.637H481.143L470.857 270.975L474.786 279.613L464.5 274.275L454.214 279.613L458.143 270.975L447.856 265.637H460.571L464.5 257Z" fill="#595A7C"/>
<path d="M464.5 257L468.429 265.637H481.143L470.857 270.975L474.786 279.613L464.5 274.275L454.214 279.613L458.143 270.975L447.856 265.637H460.571L464.5 257Z" fill="#595A7C"/>
<path d="M464.5 257L468.429 265.637H481.143L470.857 270.975L474.786 279.613L464.5 274.275L454.214 279.613L458.143 270.975L447.856 265.637H460.571L464.5 257Z" fill="#595A7C"/>
<path d="M464.5 257L468.429 265.637H481.143L470.857 270.975L474.786 279.613L464.5 274.275L454.214 279.613L458.143 270.975L447.856 265.637H460.571L464.5 257Z" fill="#595A7C"/>
<path d="M464.5 257L468.429 265.637H481.143L470.857 270.975L474.786 279.613L464.5 274.275L454.214 279.613L458.143 270.975L447.856 265.637H460.571L464.5 257Z" fill="#595A7C"/>
<path d="M464.5 257L468.429 265.637H481.143L470.857 270.975L474.786 279.613L464.5 274.275L454.214 279.613L458.143 270.975L447.856 265.637H460.571L464.5 257Z" fill="#595A7C"/>
<path d="M246.5 5L250.429 13.6373H263.143L252.857 18.9754L256.786 27.6127L246.5 22.2746L236.214 27.6127L240.143 18.9754L229.856 13.6373H242.571L246.5 5Z" fill="#595A7C"/>
<path d="M246.5 5L250.429 13.6373H263.143L252.857 18.9754L256.786 27.6127L246.5 22.2746L236.214 27.6127L240.143 18.9754L229.856 13.6373H242.571L246.5 5Z" fill="#595A7C"/>
<path d="M246.5 5L250.429 13.6373H263.143L252.857 18.9754L256.786 27.6127L246.5 22.2746L236.214 27.6127L240.143 18.9754L229.856 13.6373H242.571L246.5 5Z" fill="#595A7C"/>
<path d="M246.5 5L250.429 13.6373H263.143L252.857 18.9754L256.786 27.6127L246.5 22.2746L236.214 27.6127L240.143 18.9754L229.856 13.6373H242.571L246.5 5Z" fill="#595A7C"/>
<path d="M246.5 5L250.429 13.6373H263.143L252.857 18.9754L256.786 27.6127L246.5 22.2746L236.214 27.6127L240.143 18.9754L229.856 13.6373H242.571L246.5 5Z" fill="#595A7C"/>
<path d="M246.5 5L250.429 13.6373H263.143L252.857 18.9754L256.786 27.6127L246.5 22.2746L236.214 27.6127L240.143 18.9754L229.856 13.6373H242.571L246.5 5Z" fill="#595A7C"/>
<path d="M249.5 268L253.429 276.292H266.143L255.857 281.416L259.786 289.708L249.5 284.584L239.214 289.708L243.143 281.416L232.856 276.292H245.571L249.5 268Z" fill="#595A7C"/>
<path d="M249.5 268L253.429 276.292H266.143L255.857 281.416L259.786 289.708L249.5 284.584L239.214 289.708L243.143 281.416L232.856 276.292H245.571L249.5 268Z" fill="#595A7C"/>
<path d="M249.5 268L253.429 276.292H266.143L255.857 281.416L259.786 289.708L249.5 284.584L239.214 289.708L243.143 281.416L232.856 276.292H245.571L249.5 268Z" fill="#595A7C"/>
<path d="M249.5 268L253.429 276.292H266.143L255.857 281.416L259.786 289.708L249.5 284.584L239.214 289.708L243.143 281.416L232.856 276.292H245.571L249.5 268Z" fill="#595A7C"/>
<path d="M249.5 268L253.429 276.292H266.143L255.857 281.416L259.786 289.708L249.5 284.584L239.214 289.708L243.143 281.416L232.856 276.292H245.571L249.5 268Z" fill="#595A7C"/>
<path d="M249.5 268L253.429 276.292H266.143L255.857 281.416L259.786 289.708L249.5 284.584L239.214 289.708L243.143 281.416L232.856 276.292H245.571L249.5 268Z" fill="#595A7C"/>
<path d="M464.5 27L468.429 35.6373H481.143L470.857 40.9754L474.786 49.6127L464.5 44.2746L454.214 49.6127L458.143 40.9754L447.856 35.6373H460.571L464.5 27Z" fill="#595A7C"/>
<path d="M464.5 27L468.429 35.6373H481.143L470.857 40.9754L474.786 49.6127L464.5 44.2746L454.214 49.6127L458.143 40.9754L447.856 35.6373H460.571L464.5 27Z" fill="#595A7C"/>
<path d="M464.5 27L468.429 35.6373H481.143L470.857 40.9754L474.786 49.6127L464.5 44.2746L454.214 49.6127L458.143 40.9754L447.856 35.6373H460.571L464.5 27Z" fill="#595A7C"/>
<path d="M464.5 27L468.429 35.6373H481.143L470.857 40.9754L474.786 49.6127L464.5 44.2746L454.214 49.6127L458.143 40.9754L447.856 35.6373H460.571L464.5 27Z" fill="#595A7C"/>
<path d="M464.5 27L468.429 35.6373H481.143L470.857 40.9754L474.786 49.6127L464.5 44.2746L454.214 49.6127L458.143 40.9754L447.856 35.6373H460.571L464.5 27Z" fill="#595A7C"/>
<path d="M464.5 27L468.429 35.6373H481.143L470.857 40.9754L474.786 49.6127L464.5 44.2746L454.214 49.6127L458.143 40.9754L447.856 35.6373H460.571L464.5 27Z" fill="#595A7C"/>
<circle cx="151.5" cy="101.5" r="0.5" fill="#AEADC0"/>
<circle cx="151.5" cy="101.5" r="0.5" fill="#AEADC0"/>
<ellipse cx="102" cy="164.5" rx="4" ry="3.5" fill="#595A7C"/>
<circle cx="136" cy="27" r="4" fill="#595A7C"/>
<ellipse cx="147.5" cy="288.5" rx="4.5" ry="3.5" fill="#595A7C"/>
<ellipse cx="329.5" cy="219" rx="4.5" ry="4" fill="#595A7C"/>
<ellipse cx="301" cy="75.5" rx="4" ry="3.5" fill="#595A7C"/>
</svg>
