<svg width="171" height="171" viewBox="0 0 171 171" fill="none" xmlns="http://www.w3.org/2000/svg">
<path d="M76 10.8C70 11.4667 55.3333 15.3333 53.6 16.6667C53.3333 16.9333 62 37.7333 63.3333 40.1333C63.7333 40.6667 66.6667 40.2667 69.7333 39.2C82.6667 34.6667 101.2 37.6 113.6 46.1333C120.533 50.9333 128.8 62.8 131.333 71.2C134.267 81.2 134 82.4 128.8 82.9333L124.267 83.3333L135.2 98.9333C141.067 107.6 146.4 114.533 146.933 114.667C147.733 114.667 169.333 84.8 169.333 83.4667C169.333 83.0667 167.333 82.6667 165.067 82.4C160.8 82 160.667 81.7333 159.2 74C157.067 61.6 153.6 52.6667 147.733 44C132 20.4 104.267 7.46665 76 10.8ZM107.2 18.8C116.267 21.6 129.067 29.4667 135.6 36.2667C145.067 46.1333 154.667 67.2 154.667 78C154.667 83.7333 155.867 86.6667 158.133 86.6667C159.2 86.6667 160 87.0667 160 87.6C160 88.4 147.733 106.667 147.2 106.667C147.067 106.667 143.733 102.267 140 96.9333L133.2 87.3333L140 86.9333C144.8 86.6667 146.667 86 146.667 84.5333C146.667 83.3333 145.333 82.6667 142.8 82.6667C139.333 82.6667 138.933 82.1333 137.6 75.4667C134.267 59.0667 122.933 44.1333 108.133 36.9333C99.8667 32.9333 98.5333 32.6667 85.3333 32.8C77.6 32.9333 70.1333 33.2 68.8 33.4667C66.8 33.8667 65.6 32.4 63.2 26.9333L60 19.8667L63.4667 18.5333C74.9333 14.2667 93.0667 14.2667 107.2 18.8Z" fill="white"/>
<path d="M85.3333 20.5333C85.3333 23.3333 88.1333 24.6666 89.4667 22.5333C91.3333 19.6 90.9333 18.6666 88 18.6666C86.5333 18.6666 85.3333 19.4666 85.3333 20.5333Z" fill="white"/>
<path d="M93.3333 21.2C93.3333 23.2 94.1333 24 96.1333 24C98 24 98.6667 23.3333 98.4 21.7333C97.7333 18.2667 93.3333 17.8667 93.3333 21.2Z" fill="white"/>
<path d="M101.6 23.4667C101.867 24.6667 105.067 26.8 108.667 28.1333C112.4 29.4667 118.4 33.0667 122.267 35.8667C127.733 40.1333 129.467 40.8 130.667 39.4667C132.533 37.0667 124.667 30.1333 114.133 25.2C104.933 20.8 100.933 20.2667 101.6 23.4667Z" fill="white"/>
<path d="M39.7333 25.0667C34.2667 28.9333 33.6 30.4 36.6667 31.4667C39.0667 32.4 46.6667 27.2 46.6667 24.6667C46.6667 21.3333 44.8 21.4667 39.7333 25.0667Z" fill="white"/>
<path d="M44.2667 34.9333C41.3333 37.3333 37.3333 41.3333 35.2 43.7333C32.2667 47.3333 31.8667 48.4 33.4667 49.3333C34.6667 50.1333 37.6 48.2667 43.3333 43.0667C47.7333 38.9333 51.8667 35.0667 52.4 34.6667C52.9333 34.1333 52.6667 33.0667 51.6 32.2667C50.1333 30.9333 48.5333 31.6 44.2667 34.9333Z" fill="white"/>
<path d="M30 33.3333C28.6667 35.4667 32.1333 39.0667 33.7333 37.4667C35.2 36 34 32 32.1333 32C31.4667 32 30.4 32.6667 30 33.3333Z" fill="white"/>
<path d="M24.5333 40.1333C23.2 42.4 26.2667 44.9333 28.1333 43.0667C29.7333 41.4667 28.6667 38.6667 26.6667 38.6667C26 38.6667 25.0667 39.3333 24.5333 40.1333Z" fill="white"/>
<path d="M53.4667 41.8667C52.4 43.2 52.4 44 53.7333 45.0667C56 47.0667 58.9333 45.0667 57.8667 42.2667C56.8 39.4667 55.4667 39.3333 53.4667 41.8667Z" fill="white"/>
<path d="M46.8 47.2C45.6 48.5333 45.7333 49.3333 47.3333 50.6667C49.8667 52.8 52.8 50.5333 51.6 47.4667C50.5333 44.8 48.8 44.8 46.8 47.2Z" fill="white"/>
<path d="M52 68V84H63.3333H74.6667V79.3333C74.6667 76.1333 75.3333 74.6667 76.6667 74.6667C78 74.6667 78.6667 76.1333 78.6667 79.3333C78.6667 83.4667 79.0667 84 82.2667 84C85.8667 84 85.8667 84.1333 79.6 90.4C76.1333 93.8667 73.3333 97.3333 73.3333 98.1333C73.3333 98.9333 75.2 101.2 77.3333 103.333L81.3333 107.2L88.6667 100C94.9333 93.7333 96 93.2 96 95.7333C96 98.2667 96.6667 98.6667 101.333 98.6667H106.667V108.667V118.667H112.667H118.667V102.667V86.6667H110.4H102.133L107.067 81.6C109.733 78.8 112 76 112 75.2C112 74.4 110.133 72.1333 108 70L104 66.1333L98 72L92 77.8667V64.9333V52H72H52V68ZM69.3333 63.2C69.3333 69.0667 69.3333 69.2 64.4 69.6C60 70 59.3333 70.4 59.3333 73.3333C59.3333 76.2667 60 76.6667 64.4 77.0667C71.3333 77.6 70.5333 80 63.3333 80H57.3333V73.3333V66.6667H62C66.1333 66.6667 66.6667 66.2667 66.6667 63.3333C66.6667 60.4 66.1333 60 62 60C59.4667 60 57.3333 59.3333 57.3333 58.6667C57.3333 57.8667 60 57.3333 63.3333 57.3333H69.3333V63.2ZM77.3333 62C77.3333 66.1333 77.7333 66.6667 80.6667 66.6667C83.6 66.6667 84 66.1333 84 62C84 59.4667 84.6667 57.3333 85.3333 57.3333C86.1333 57.3333 86.6667 62 86.6667 68.8C86.6667 76 86.1333 79.8667 85.3333 79.3333C84.6667 78.9333 84 76.4 84 73.8667C84 69.6 83.7333 69.3333 79.3333 69.3333C74.6667 69.3333 74.6667 69.3333 74.6667 63.3333C74.6667 60 75.3333 57.3333 76 57.3333C76.8 57.3333 77.3333 59.4667 77.3333 62ZM94 86.6667C87.4667 93.2 81.4667 98.6667 80.6667 98.6667C80 98.6667 84.8 93.2 91.3333 86.6667C97.8667 80 103.867 74.6667 104.667 74.6667C105.333 74.6667 100.533 80 94 86.6667ZM113.067 102.267L112.8 114L112.133 104L111.333 94L106.4 93.6C99.3333 93.0667 100.133 90.6667 107.333 90.6667H113.333L113.067 102.267Z" fill="white"/>
<path d="M11.7333 70.9333L0.266663 87.3333L4.8 87.7333C8.8 88.1333 9.33333 88.6667 10 93.0667C16.4 133.733 46.1333 160.133 85.3333 160.133C97.8667 160.133 116 156.133 116 153.333C116 152.267 106.933 130.533 106.133 129.733C105.867 129.467 103.067 130.267 99.8667 131.333C91.3333 134.4 76.8 134.133 67.6 130.667C52.9333 125.2 39.2 108.267 36.9333 93.0667L36.1333 88.1333L41.6 87.7333L46.9333 87.3333L35.3333 70.9333C29.0667 62 23.7333 54.6667 23.4667 54.6667C23.3333 54.6667 18 62 11.7333 70.9333ZM31.0667 73.3333L37.4667 82.6667H30.8C24.9333 82.6667 24 83.0667 24 85.3333C24 87.3333 24.9333 88 27.8667 88C31.3333 88 31.7333 88.4 32.2667 93.8667C34 109.2 47.2 126.533 62.6667 133.867C70.4 137.6 72.6667 138 84 138C90.9333 138 98.2667 137.467 100.133 136.933C103.333 135.867 103.733 136.267 106.4 142.533C108 146.133 109.333 149.733 109.333 150.267C109.333 151.867 98.9333 154.4 88.6667 155.467C77.8667 156.533 63.6 153.333 52 147.2C40.8 141.333 27.6 128 22.4 117.067C18.2667 108.533 14.6667 95.2 14.6667 87.6C14.6667 84.1333 14.1333 82.6667 12.6667 82.6667C11.6 82.6667 10.6667 82.2667 10.6667 81.8667C10.6667 80.5333 22.8 64 23.7333 64C24.2667 64 27.6 68.2667 31.0667 73.3333Z" fill="white"/>
<path d="M19.3333 98.9333C21.0667 106.933 25.3333 117.067 29.4667 122.667C32.6667 127.067 33.8667 127.867 35.3333 126.667C36.8 125.333 36.4 124 32.6667 118.133C30.1333 114.133 27.0667 107.333 25.7333 102.8C23.8667 96.6667 22.6667 94.6667 20.9333 94.6667C18.8 94.6667 18.6667 95.3333 19.3333 98.9333Z" fill="white"/>
<path d="M65.6 142.267C65.8667 143.6 66.9333 144.667 68 144.667C69.0667 144.667 70.1333 143.6 70.4 142.267C70.6667 140.667 70 140 68 140C66 140 65.3333 140.667 65.6 142.267Z" fill="white"/>
<path d="M73.3333 144C73.3333 145.733 74.2667 146.667 76 146.667C77.7333 146.667 78.6667 145.733 78.6667 144C78.6667 142.267 77.7333 141.333 76 141.333C74.2667 141.333 73.3333 142.267 73.3333 144Z" fill="white"/>
<path d="M90.8 142.533C88.6667 143.867 90 146.667 92.8 146.667C93.8667 146.667 94.6667 145.467 94.6667 144C94.6667 141.067 93.7333 140.667 90.8 142.533Z" fill="white"/>
<path d="M81.6 144.933C82.2667 148.4 86.6667 148.8 86.6667 145.467C86.6667 143.467 85.8667 142.667 83.8667 142.667C82 142.667 81.3333 143.333 81.6 144.933Z" fill="white"/>
<path d="M118.8 120.533C117.6 121.867 117.733 122.667 119.2 123.867C120.533 125.067 121.333 124.933 122.533 123.467C123.733 122.133 123.6 121.333 122.133 120.133C120.8 118.933 120 119.067 118.8 120.533Z" fill="white"/>
<path d="M125.733 128.533C120 134.267 117.867 137.333 118.667 138.667C119.467 140 120.933 139.467 125.2 136.133C134.933 128.4 139.467 121.467 135.2 120.533C134.533 120.4 130.267 124 125.733 128.533Z" fill="white"/>
<path d="M112.133 125.867C111.067 127.2 111.067 128 112.4 129.067C114.667 131.067 117.6 129.067 116.533 126.267C115.467 123.467 114.133 123.333 112.133 125.867Z" fill="white"/>
<path d="M140.667 128C139.6 129.733 141.067 132 143.333 132C145.2 132 146.933 128.8 145.733 127.467C144.4 126.267 141.6 126.533 140.667 128Z" fill="white"/>
<path d="M136.133 133.867C134.933 135.2 135.067 136 136.533 137.2C137.867 138.4 138.667 138.267 139.867 136.8C141.067 135.467 140.933 134.667 139.467 133.467C138.133 132.267 137.333 132.4 136.133 133.867Z" fill="white"/>
<path d="M126.133 141.867C122.533 144.933 122.267 148 125.733 148C128.4 147.867 135.067 141.733 134.133 140.133C132.667 137.867 130.4 138.4 126.133 141.867Z" fill="white"/>
</svg>
