<svg width="828" height="396" viewBox="0 0 828 396" fill="none" xmlns="http://www.w3.org/2000/svg">
<rect x="1.04321" y="193.292" width="825.667" height="202.401" fill="url(#paint0_linear_2_28)"/>
<rect width="825.666" height="202.401" transform="matrix(1 -0.000358428 0.000652241 1 0.977234 139.188)" fill="url(#paint1_linear_2_28)"/>
<rect width="825.666" height="202.401" transform="matrix(-0.999999 -0.00108648 0.0019771 -0.999998 826.509 341.889)" fill="url(#paint2_linear_2_28)"/>
<rect width="825.666" height="202.401" transform="matrix(-0.999999 -0.00108648 0.0019771 -0.999998 826.109 295.389)" fill="url(#paint3_linear_2_28)"/>
<rect width="825.666" height="202.401" transform="matrix(-0.999999 -0.00108648 0.0019771 -0.999998 825.709 248.889)" fill="url(#paint4_linear_2_28)"/>
<rect width="825.666" height="202.401" transform="matrix(-0.999999 -0.00108648 0.0019771 -0.999998 826.709 203.78)" fill="url(#paint5_linear_2_28)"/>
<rect x="1.04321" y="88.2662" width="825.667" height="202.401" fill="url(#paint6_linear_2_28)"/>
<rect x="1.04321" y="37.4922" width="825.667" height="202.401" fill="url(#paint7_linear_2_28)"/>
<path d="M289.926 193.741L282.767 167.559H285.989L291.46 188.883H291.716L297.29 167.559H300.869L306.443 188.883H306.699L312.17 167.559H315.392L308.233 193.741H304.96L299.182 172.877H298.977L293.199 193.741H289.926ZM325.338 194.15C323.446 194.15 321.814 193.732 320.442 192.897C319.078 192.053 318.026 190.877 317.284 189.368C316.551 187.851 316.185 186.087 316.185 184.076C316.185 182.064 316.551 180.292 317.284 178.758C318.026 177.215 319.057 176.013 320.378 175.153C321.707 174.283 323.259 173.849 325.031 173.849C326.054 173.849 327.064 174.019 328.061 174.36C329.058 174.701 329.966 175.255 330.784 176.022C331.602 176.78 332.254 177.786 332.74 179.039C333.226 180.292 333.469 181.834 333.469 183.667V184.945H318.332V182.337H330.401C330.401 181.229 330.179 180.241 329.736 179.371C329.301 178.502 328.679 177.816 327.869 177.313C327.068 176.81 326.122 176.559 325.031 176.559C323.83 176.559 322.79 176.857 321.912 177.454C321.043 178.042 320.374 178.809 319.905 179.755C319.436 180.701 319.202 181.715 319.202 182.797V184.536C319.202 186.019 319.457 187.276 319.969 188.307C320.489 189.33 321.209 190.11 322.129 190.647C323.05 191.175 324.119 191.439 325.338 191.439C326.131 191.439 326.847 191.329 327.486 191.107C328.134 190.877 328.692 190.536 329.161 190.084C329.629 189.624 329.991 189.053 330.247 188.371L333.162 189.189C332.855 190.178 332.339 191.047 331.615 191.797C330.891 192.539 329.996 193.118 328.93 193.536C327.865 193.945 326.668 194.15 325.338 194.15ZM341.075 167.559V193.741H338.058V167.559H341.075ZM354.578 194.15C352.738 194.15 351.152 193.715 349.823 192.846C348.493 191.976 347.471 190.779 346.755 189.253C346.039 187.728 345.681 185.985 345.681 184.025C345.681 182.03 346.047 180.27 346.78 178.745C347.522 177.211 348.553 176.013 349.874 175.153C351.203 174.283 352.755 173.849 354.527 173.849C355.908 173.849 357.152 174.104 358.26 174.616C359.368 175.127 360.276 175.843 360.983 176.763C361.691 177.684 362.13 178.758 362.3 179.985H359.283C359.053 179.09 358.542 178.297 357.749 177.607C356.965 176.908 355.908 176.559 354.578 176.559C353.402 176.559 352.371 176.866 351.485 177.479C350.607 178.084 349.921 178.941 349.426 180.049C348.941 181.148 348.698 182.439 348.698 183.922C348.698 185.439 348.936 186.76 349.414 187.885C349.9 189.01 350.581 189.884 351.459 190.506C352.346 191.128 353.385 191.439 354.578 191.439C355.363 191.439 356.074 191.303 356.713 191.03C357.353 190.758 357.894 190.366 358.337 189.854C358.78 189.343 359.096 188.729 359.283 188.013H362.3C362.13 189.172 361.708 190.216 361.034 191.145C360.37 192.066 359.488 192.799 358.388 193.344C357.297 193.881 356.027 194.15 354.578 194.15ZM374.688 194.15C372.915 194.15 371.36 193.728 370.022 192.884C368.692 192.04 367.652 190.86 366.902 189.343C366.161 187.826 365.79 186.053 365.79 184.025C365.79 181.979 366.161 180.194 366.902 178.668C367.652 177.143 368.692 175.958 370.022 175.114C371.36 174.27 372.915 173.849 374.688 173.849C376.461 173.849 378.012 174.27 379.341 175.114C380.679 175.958 381.719 177.143 382.461 178.668C383.211 180.194 383.586 181.979 383.586 184.025C383.586 186.053 383.211 187.826 382.461 189.343C381.719 190.86 380.679 192.04 379.341 192.884C378.012 193.728 376.461 194.15 374.688 194.15ZM374.688 191.439C376.034 191.439 377.142 191.094 378.012 190.404C378.881 189.714 379.525 188.806 379.942 187.681C380.36 186.556 380.569 185.337 380.569 184.025C380.569 182.712 380.36 181.489 379.942 180.356C379.525 179.222 378.881 178.306 378.012 177.607C377.142 176.908 376.034 176.559 374.688 176.559C373.341 176.559 372.233 176.908 371.364 177.607C370.495 178.306 369.851 179.222 369.434 180.356C369.016 181.489 368.807 182.712 368.807 184.025C368.807 185.337 369.016 186.556 369.434 187.681C369.851 188.806 370.495 189.714 371.364 190.404C372.233 191.094 373.341 191.439 374.688 191.439ZM388.191 193.741V174.104H391.106V177.172H391.362C391.771 176.124 392.431 175.31 393.343 174.731C394.255 174.143 395.35 173.849 396.629 173.849C397.924 173.849 399.002 174.143 399.863 174.731C400.732 175.31 401.41 176.124 401.896 177.172H402.1C402.603 176.158 403.357 175.353 404.363 174.756C405.369 174.151 406.575 173.849 407.981 173.849C409.737 173.849 411.173 174.398 412.289 175.498C413.406 176.589 413.964 178.289 413.964 180.599V193.741H410.947V180.599C410.947 179.15 410.55 178.114 409.758 177.492C408.965 176.87 408.032 176.559 406.958 176.559C405.577 176.559 404.508 176.976 403.749 177.812C402.991 178.638 402.612 179.687 402.612 180.957V193.741H399.543V180.292C399.543 179.175 399.181 178.276 398.457 177.594C397.732 176.904 396.799 176.559 395.657 176.559C394.873 176.559 394.14 176.768 393.458 177.185C392.785 177.603 392.239 178.182 391.822 178.924C391.413 179.657 391.208 180.505 391.208 181.468V193.741H388.191ZM427.713 194.15C425.821 194.15 424.189 193.732 422.817 192.897C421.453 192.053 420.401 190.877 419.659 189.368C418.926 187.851 418.56 186.087 418.56 184.076C418.56 182.064 418.926 180.292 419.659 178.758C420.401 177.215 421.432 176.013 422.753 175.153C424.082 174.283 425.634 173.849 427.406 173.849C428.429 173.849 429.439 174.019 430.436 174.36C431.433 174.701 432.341 175.255 433.159 176.022C433.977 176.78 434.629 177.786 435.115 179.039C435.601 180.292 435.844 181.834 435.844 183.667V184.945H420.707V182.337H432.776C432.776 181.229 432.554 180.241 432.111 179.371C431.676 178.502 431.054 177.816 430.244 177.313C429.443 176.81 428.497 176.559 427.406 176.559C426.205 176.559 425.165 176.857 424.287 177.454C423.418 178.042 422.749 178.809 422.28 179.755C421.811 180.701 421.577 181.715 421.577 182.797V184.536C421.577 186.019 421.832 187.276 422.344 188.307C422.864 189.33 423.584 190.11 424.504 190.647C425.425 191.175 426.494 191.439 427.713 191.439C428.506 191.439 429.222 191.329 429.861 191.107C430.509 190.877 431.067 190.536 431.536 190.084C432.004 189.624 432.366 189.053 432.622 188.371L435.537 189.189C435.23 190.178 434.714 191.047 433.99 191.797C433.266 192.539 432.371 193.118 431.305 193.536C430.24 193.945 429.043 194.15 427.713 194.15ZM449.536 170.371V167.559H469.172V170.371H460.939V193.741H457.768V170.371H449.536ZM478.786 194.15C477.013 194.15 475.457 193.728 474.119 192.884C472.79 192.04 471.75 190.86 471 189.343C470.259 187.826 469.888 186.053 469.888 184.025C469.888 181.979 470.259 180.194 471 178.668C471.75 177.143 472.79 175.958 474.119 175.114C475.457 174.27 477.013 173.849 478.786 173.849C480.558 173.849 482.109 174.27 483.439 175.114C484.777 175.958 485.817 177.143 486.558 178.668C487.308 180.194 487.683 181.979 487.683 184.025C487.683 186.053 487.308 187.826 486.558 189.343C485.817 190.86 484.777 192.04 483.439 192.884C482.109 193.728 480.558 194.15 478.786 194.15ZM478.786 191.439C480.132 191.439 481.24 191.094 482.109 190.404C482.979 189.714 483.622 188.806 484.04 187.681C484.457 186.556 484.666 185.337 484.666 184.025C484.666 182.712 484.457 181.489 484.04 180.356C483.622 179.222 482.979 178.306 482.109 177.607C481.24 176.908 480.132 176.559 478.786 176.559C477.439 176.559 476.331 176.908 475.462 177.607C474.592 178.306 473.949 179.222 473.531 180.356C473.114 181.489 472.905 182.712 472.905 184.025C472.905 185.337 473.114 186.556 473.531 187.681C473.949 188.806 474.592 189.714 475.462 190.404C476.331 191.094 477.439 191.439 478.786 191.439ZM502.823 193.741V167.559H511.669C513.723 167.559 515.402 167.93 516.706 168.671C518.019 169.404 518.99 170.397 519.621 171.65C520.252 172.903 520.567 174.3 520.567 175.843C520.567 177.385 520.252 178.787 519.621 180.049C518.999 181.31 518.036 182.316 516.732 183.066C515.428 183.807 513.757 184.178 511.721 184.178H505.38V181.366H511.618C513.025 181.366 514.154 181.123 515.006 180.637C515.858 180.151 516.476 179.495 516.86 178.668C517.252 177.833 517.448 176.891 517.448 175.843C517.448 174.795 517.252 173.857 516.86 173.03C516.476 172.204 515.854 171.556 514.993 171.087C514.132 170.61 512.99 170.371 511.567 170.371H505.993V193.741H502.823ZM525.265 193.741V174.104H528.18V177.07H528.385C528.743 176.099 529.39 175.31 530.328 174.705C531.265 174.1 532.322 173.797 533.498 173.797C533.72 173.797 533.997 173.802 534.329 173.81C534.662 173.819 534.913 173.832 535.083 173.849V176.917C534.981 176.891 534.747 176.853 534.38 176.802C534.022 176.742 533.643 176.712 533.243 176.712C532.288 176.712 531.436 176.912 530.686 177.313C529.944 177.705 529.356 178.251 528.922 178.949C528.495 179.64 528.282 180.428 528.282 181.314V193.741H525.265ZM546.039 194.15C544.267 194.15 542.711 193.728 541.373 192.884C540.044 192.04 539.004 190.86 538.254 189.343C537.512 187.826 537.142 186.053 537.142 184.025C537.142 181.979 537.512 180.194 538.254 178.668C539.004 177.143 540.044 175.958 541.373 175.114C542.711 174.27 544.267 173.849 546.039 173.849C547.812 173.849 549.363 174.27 550.693 175.114C552.031 175.958 553.071 177.143 553.812 178.668C554.562 180.194 554.937 181.979 554.937 184.025C554.937 186.053 554.562 187.826 553.812 189.343C553.071 190.86 552.031 192.04 550.693 192.884C549.363 193.728 547.812 194.15 546.039 194.15ZM546.039 191.439C547.386 191.439 548.494 191.094 549.363 190.404C550.233 189.714 550.876 188.806 551.294 187.681C551.711 186.556 551.92 185.337 551.92 184.025C551.92 182.712 551.711 181.489 551.294 180.356C550.876 179.222 550.233 178.306 549.363 177.607C548.494 176.908 547.386 176.559 546.039 176.559C544.693 176.559 543.585 176.908 542.716 177.607C541.846 178.306 541.203 179.222 540.785 180.356C540.368 181.489 540.159 182.712 540.159 184.025C540.159 185.337 540.368 186.556 540.785 187.681C541.203 188.806 541.846 189.714 542.716 190.404C543.585 191.094 544.693 191.439 546.039 191.439ZM567.469 201.513C566.011 201.513 564.759 201.326 563.71 200.951C562.662 200.584 561.788 200.099 561.089 199.493C560.399 198.897 559.849 198.258 559.44 197.576L561.844 195.888C562.116 196.246 562.462 196.655 562.879 197.116C563.297 197.584 563.868 197.989 564.592 198.33C565.325 198.68 566.284 198.854 567.469 198.854C569.054 198.854 570.362 198.471 571.393 197.704C572.425 196.937 572.94 195.735 572.94 194.099V190.11H572.685C572.463 190.468 572.148 190.911 571.739 191.439C571.338 191.959 570.759 192.424 570 192.833C569.25 193.233 568.236 193.434 566.957 193.434C565.372 193.434 563.949 193.059 562.688 192.309C561.435 191.559 560.442 190.468 559.709 189.036C558.984 187.604 558.622 185.866 558.622 183.82C558.622 181.809 558.976 180.057 559.683 178.566C560.391 177.066 561.375 175.907 562.636 175.089C563.898 174.262 565.355 173.849 567.009 173.849C568.287 173.849 569.301 174.062 570.051 174.488C570.81 174.905 571.389 175.383 571.79 175.92C572.199 176.448 572.514 176.883 572.736 177.224H573.043V174.104H575.957V194.303C575.957 195.991 575.574 197.363 574.807 198.42C574.048 199.485 573.026 200.265 571.739 200.759C570.46 201.262 569.037 201.513 567.469 201.513ZM567.366 190.724C568.577 190.724 569.599 190.447 570.435 189.893C571.27 189.339 571.905 188.542 572.339 187.502C572.774 186.462 572.991 185.218 572.991 183.769C572.991 182.354 572.778 181.106 572.352 180.023C571.926 178.941 571.295 178.093 570.46 177.479C569.625 176.866 568.594 176.559 567.366 176.559C566.088 176.559 565.023 176.883 564.17 177.53C563.327 178.178 562.692 179.047 562.266 180.138C561.848 181.229 561.639 182.439 561.639 183.769C561.639 185.133 561.852 186.339 562.278 187.387C562.713 188.427 563.352 189.245 564.196 189.841C565.048 190.43 566.105 190.724 567.366 190.724ZM581.48 193.741V174.104H584.395V177.07H584.599C584.957 176.099 585.605 175.31 586.543 174.705C587.48 174.1 588.537 173.797 589.713 173.797C589.935 173.797 590.212 173.802 590.544 173.81C590.876 173.819 591.128 173.832 591.298 173.849V176.917C591.196 176.891 590.962 176.853 590.595 176.802C590.237 176.742 589.858 176.712 589.457 176.712C588.503 176.712 587.651 176.912 586.901 177.313C586.159 177.705 585.571 178.251 585.136 178.949C584.71 179.64 584.497 180.428 584.497 181.314V193.741H581.48ZM600.653 194.201C599.409 194.201 598.279 193.966 597.265 193.498C596.251 193.02 595.446 192.334 594.849 191.439C594.252 190.536 593.954 189.445 593.954 188.167C593.954 187.042 594.176 186.13 594.619 185.431C595.062 184.724 595.654 184.17 596.396 183.769C597.137 183.368 597.956 183.07 598.85 182.874C599.754 182.67 600.662 182.508 601.574 182.388C602.767 182.235 603.734 182.12 604.475 182.043C605.225 181.958 605.771 181.817 606.112 181.621C606.461 181.425 606.636 181.084 606.636 180.599V180.496C606.636 179.235 606.291 178.255 605.6 177.556C604.919 176.857 603.883 176.508 602.494 176.508C601.054 176.508 599.924 176.823 599.106 177.454C598.288 178.084 597.713 178.758 597.38 179.474L594.517 178.451C595.028 177.258 595.71 176.329 596.562 175.664C597.423 174.991 598.36 174.522 599.375 174.258C600.397 173.985 601.403 173.849 602.392 173.849C603.022 173.849 603.747 173.925 604.565 174.079C605.392 174.224 606.189 174.526 606.956 174.986C607.731 175.447 608.375 176.141 608.886 177.07C609.397 177.999 609.653 179.243 609.653 180.803V193.741H606.636V191.082H606.483C606.278 191.508 605.937 191.964 605.46 192.449C604.983 192.935 604.348 193.349 603.555 193.689C602.762 194.03 601.795 194.201 600.653 194.201ZM601.113 191.491C602.306 191.491 603.312 191.256 604.13 190.787C604.957 190.319 605.579 189.714 605.997 188.972C606.423 188.231 606.636 187.451 606.636 186.633V183.871C606.508 184.025 606.227 184.165 605.792 184.293C605.366 184.412 604.872 184.519 604.309 184.613C603.755 184.698 603.214 184.775 602.686 184.843C602.166 184.903 601.744 184.954 601.42 184.996C600.636 185.099 599.903 185.265 599.221 185.495C598.548 185.716 598.002 186.053 597.585 186.505C597.176 186.948 596.971 187.553 596.971 188.32C596.971 189.368 597.359 190.161 598.135 190.698C598.919 191.226 599.912 191.491 601.113 191.491ZM615.16 193.741V174.104H618.075V177.172H618.33C618.739 176.124 619.4 175.31 620.312 174.731C621.224 174.143 622.319 173.849 623.597 173.849C624.893 173.849 625.971 174.143 626.832 174.731C627.701 175.31 628.379 176.124 628.864 177.172H629.069C629.572 176.158 630.326 175.353 631.332 174.756C632.337 174.151 633.543 173.849 634.95 173.849C636.705 173.849 638.141 174.398 639.258 175.498C640.374 176.589 640.933 178.289 640.933 180.599V193.741H637.915V180.599C637.915 179.15 637.519 178.114 636.727 177.492C635.934 176.87 635.001 176.559 633.927 176.559C632.546 176.559 631.477 176.976 630.718 177.812C629.96 178.638 629.58 179.687 629.58 180.957V193.741H626.512V180.292C626.512 179.175 626.15 178.276 625.425 177.594C624.701 176.904 623.768 176.559 622.626 176.559C621.842 176.559 621.109 176.768 620.427 177.185C619.754 177.603 619.208 178.182 618.79 178.924C618.381 179.657 618.177 180.505 618.177 181.468V193.741H615.16ZM646.449 193.741V174.104H649.364V177.172H649.619C650.028 176.124 650.689 175.31 651.601 174.731C652.513 174.143 653.608 173.849 654.886 173.849C656.182 173.849 657.26 174.143 658.121 174.731C658.99 175.31 659.668 176.124 660.153 177.172H660.358C660.861 176.158 661.615 175.353 662.621 174.756C663.626 174.151 664.832 173.849 666.239 173.849C667.994 173.849 669.43 174.398 670.547 175.498C671.663 176.589 672.222 178.289 672.222 180.599V193.741H669.205V180.599C669.205 179.15 668.808 178.114 668.016 177.492C667.223 176.87 666.29 176.559 665.216 176.559C663.835 176.559 662.766 176.976 662.007 177.812C661.249 178.638 660.869 179.687 660.869 180.957V193.741H657.801V180.292C657.801 179.175 657.439 178.276 656.714 177.594C655.99 176.904 655.057 176.559 653.915 176.559C653.131 176.559 652.398 176.768 651.716 177.185C651.043 177.603 650.497 178.182 650.08 178.924C649.67 179.657 649.466 180.505 649.466 181.468V193.741H646.449ZM677.738 193.741V174.104H680.755V193.741H677.738ZM679.272 170.832C678.684 170.832 678.177 170.631 677.751 170.231C677.333 169.83 677.124 169.349 677.124 168.786C677.124 168.224 677.333 167.742 677.751 167.341C678.177 166.941 678.684 166.741 679.272 166.741C679.86 166.741 680.363 166.941 680.781 167.341C681.207 167.742 681.42 168.224 681.42 168.786C681.42 169.349 681.207 169.83 680.781 170.231C680.363 170.631 679.86 170.832 679.272 170.832ZM689.298 181.928V193.741H686.281V174.104H689.196V177.172H689.451C689.912 176.175 690.61 175.374 691.548 174.769C692.485 174.155 693.696 173.849 695.179 173.849C696.508 173.849 697.672 174.121 698.669 174.667C699.666 175.204 700.441 176.022 700.995 177.121C701.549 178.212 701.826 179.593 701.826 181.263V193.741H698.809V181.468C698.809 179.925 698.409 178.724 697.608 177.863C696.806 176.993 695.707 176.559 694.309 176.559C693.346 176.559 692.485 176.768 691.727 177.185C690.977 177.603 690.385 178.212 689.95 179.013C689.515 179.814 689.298 180.786 689.298 181.928ZM715.266 201.513C713.808 201.513 712.555 201.326 711.507 200.951C710.459 200.584 709.585 200.099 708.886 199.493C708.196 198.897 707.646 198.258 707.237 197.576L709.641 195.888C709.913 196.246 710.259 196.655 710.676 197.116C711.094 197.584 711.665 197.989 712.389 198.33C713.122 198.68 714.081 198.854 715.266 198.854C716.851 198.854 718.159 198.471 719.19 197.704C720.222 196.937 720.737 195.735 720.737 194.099V190.11H720.482C720.26 190.468 719.945 190.911 719.536 191.439C719.135 191.959 718.555 192.424 717.797 192.833C717.047 193.233 716.033 193.434 714.754 193.434C713.169 193.434 711.746 193.059 710.484 192.309C709.232 191.559 708.239 190.468 707.506 189.036C706.781 187.604 706.419 185.866 706.419 183.82C706.419 181.809 706.773 180.057 707.48 178.566C708.188 177.066 709.172 175.907 710.433 175.089C711.695 174.262 713.152 173.849 714.805 173.849C716.084 173.849 717.098 174.062 717.848 174.488C718.607 174.905 719.186 175.383 719.587 175.92C719.996 176.448 720.311 176.883 720.533 177.224H720.839V174.104H723.754V194.303C723.754 195.991 723.371 197.363 722.604 198.42C721.845 199.485 720.822 200.265 719.536 200.759C718.257 201.262 716.834 201.513 715.266 201.513ZM715.163 190.724C716.374 190.724 717.396 190.447 718.232 189.893C719.067 189.339 719.702 188.542 720.136 187.502C720.571 186.462 720.788 185.218 720.788 183.769C720.788 182.354 720.575 181.106 720.149 180.023C719.723 178.941 719.092 178.093 718.257 177.479C717.422 176.866 716.391 176.559 715.163 176.559C713.885 176.559 712.82 176.883 711.967 177.53C711.124 178.178 710.489 179.047 710.062 180.138C709.645 181.229 709.436 182.439 709.436 183.769C709.436 185.133 709.649 186.339 710.075 187.387C710.51 188.427 711.149 189.245 711.993 189.841C712.845 190.43 713.902 190.724 715.163 190.724Z" fill="white"/>
<ellipse cx="159" cy="156.648" rx="76" ry="74.0744" fill="#4E72A9" fill-opacity="0.46"/>
<ellipse cx="159" cy="156.648" rx="76" ry="74.0744" fill="#4E72A9" fill-opacity="0.46"/>
<ellipse cx="159" cy="156.648" rx="76" ry="74.0744" fill="#4E72A9" fill-opacity="0.46"/>
<ellipse cx="159" cy="156.648" rx="76" ry="74.0744" fill="#4E72A9" fill-opacity="0.46"/>
<path d="M227.646 156.97C227.646 197.88 193.619 231.045 151.646 231.045C109.672 231.045 75.6456 197.88 75.6456 156.97C75.6456 116.06 109.672 82.8958 151.646 82.8958C193.619 82.8958 227.646 116.06 227.646 156.97Z" fill="#5660B6" fill-opacity="0.96"/>
<path d="M259.646 124.013C259.646 164.924 225.619 198.088 183.646 198.088C141.672 198.088 107.646 164.924 107.646 124.013C107.646 83.1032 141.672 49.9389 183.646 49.9389C225.619 49.9389 259.646 83.1032 259.646 124.013Z" fill="#5660B6" fill-opacity="0.33"/>
<path d="M122.384 149.899H119.214C119.026 148.987 118.698 148.186 118.229 147.496C117.769 146.805 117.207 146.226 116.542 145.757C115.886 145.28 115.157 144.922 114.356 144.683C113.555 144.445 112.719 144.325 111.85 144.325C110.265 144.325 108.829 144.726 107.542 145.527C106.264 146.328 105.245 147.509 104.487 149.068C103.737 150.628 103.362 152.541 103.362 154.808C103.362 157.075 103.737 158.989 104.487 160.548C105.245 162.108 106.264 163.288 107.542 164.09C108.829 164.891 110.265 165.291 111.85 165.291C112.719 165.291 113.555 165.172 114.356 164.933C115.157 164.695 115.886 164.341 116.542 163.872C117.207 163.395 117.769 162.811 118.229 162.121C118.698 161.422 119.026 160.621 119.214 159.717H122.384C122.146 161.055 121.711 162.253 121.08 163.31C120.45 164.366 119.666 165.266 118.728 166.007C117.791 166.74 116.738 167.298 115.57 167.682C114.411 168.065 113.171 168.257 111.85 168.257C109.617 168.257 107.631 167.712 105.893 166.621C104.154 165.53 102.786 163.979 101.789 161.967C100.792 159.956 100.293 157.57 100.293 154.808C100.293 152.047 100.792 149.661 101.789 147.649C102.786 145.638 104.154 144.087 105.893 142.996C107.631 141.905 109.617 141.359 111.85 141.359C113.171 141.359 114.411 141.551 115.57 141.935C116.738 142.318 117.791 142.881 118.728 143.622C119.666 144.355 120.45 145.25 121.08 146.307C121.711 147.355 122.146 148.553 122.384 149.899ZM130.115 156.087V167.899H127.098V141.717H130.115V151.331H130.371C130.831 150.317 131.522 149.511 132.442 148.915C133.371 148.31 134.607 148.007 136.15 148.007C137.488 148.007 138.659 148.276 139.665 148.813C140.671 149.341 141.451 150.155 142.005 151.254C142.567 152.345 142.848 153.734 142.848 155.422V167.899H139.831V155.626C139.831 154.067 139.427 152.861 138.617 152.009C137.816 151.148 136.704 150.717 135.28 150.717C134.292 150.717 133.405 150.926 132.621 151.344C131.846 151.761 131.232 152.371 130.78 153.172C130.337 153.973 130.115 154.945 130.115 156.087ZM160.743 159.871V148.263H163.76V167.899H160.743V164.575H160.538C160.078 165.572 159.362 166.42 158.391 167.119C157.419 167.81 156.192 168.155 154.709 168.155C153.482 168.155 152.391 167.886 151.436 167.349C150.482 166.804 149.732 165.986 149.186 164.895C148.641 163.795 148.368 162.411 148.368 160.74V148.263H151.385V160.536C151.385 161.967 151.786 163.109 152.587 163.962C153.396 164.814 154.428 165.24 155.68 165.24C156.43 165.24 157.193 165.048 157.969 164.665C158.753 164.281 159.409 163.693 159.938 162.901C160.474 162.108 160.743 161.098 160.743 159.871ZM172.098 160.74L172.047 157.007H172.661L181.252 148.263H184.985L175.831 157.518H175.576L172.098 160.74ZM169.286 167.899V141.717H172.303V167.899H169.286ZM181.763 167.899L174.093 158.183L176.24 156.087L185.598 167.899H181.763ZM202.777 152.661L200.067 153.428C199.896 152.976 199.645 152.537 199.313 152.111C198.989 151.676 198.545 151.318 197.983 151.037C197.42 150.756 196.7 150.615 195.822 150.615C194.621 150.615 193.619 150.892 192.818 151.446C192.026 151.991 191.629 152.686 191.629 153.53C191.629 154.28 191.902 154.872 192.447 155.307C192.993 155.741 193.845 156.104 195.004 156.393L197.919 157.109C199.675 157.536 200.983 158.188 201.844 159.065C202.705 159.935 203.135 161.055 203.135 162.428C203.135 163.553 202.811 164.558 202.163 165.445C201.524 166.331 200.629 167.03 199.479 167.541C198.328 168.053 196.99 168.308 195.465 168.308C193.462 168.308 191.804 167.874 190.492 167.004C189.179 166.135 188.348 164.865 187.999 163.195L190.862 162.479C191.135 163.536 191.651 164.328 192.409 164.857C193.176 165.385 194.178 165.649 195.413 165.649C196.82 165.649 197.936 165.351 198.763 164.754C199.598 164.149 200.016 163.425 200.016 162.581C200.016 161.899 199.777 161.328 199.3 160.868C198.822 160.399 198.09 160.05 197.101 159.82L193.828 159.053C192.03 158.626 190.709 157.966 189.865 157.071C189.03 156.168 188.612 155.038 188.612 153.683C188.612 152.575 188.923 151.595 189.545 150.743C190.176 149.891 191.033 149.222 192.115 148.736C193.206 148.25 194.442 148.007 195.822 148.007C197.766 148.007 199.291 148.433 200.399 149.286C201.516 150.138 202.308 151.263 202.777 152.661Z" fill="#27339F"/>
<circle cx="790.891" cy="79.5772" r="22.5545" fill="#2B3983"/>
<circle cx="39.0911" cy="307.529" r="22.5545" fill="#2B3983"/>
<circle cx="39.0911" cy="79.5772" r="22.5545" fill="#2B3983"/>
<circle cx="790.891" cy="307.529" r="22.5545" fill="#2B3983"/>
<circle cx="30.5366" cy="313.221" r="22.5545" fill="#2B3983" fill-opacity="0.56"/>
<circle cx="799.109" cy="69.5374" r="22.5545" fill="#2B3983" fill-opacity="0.56"/>
<circle cx="30.5366" cy="69.5374" r="22.5545" fill="#2B3983" fill-opacity="0.56"/>
<circle cx="799.109" cy="317.047" r="22.5545" fill="#2B3983" fill-opacity="0.56"/>
<defs>
<linearGradient id="paint0_linear_2_28" x1="413.876" y1="193.292" x2="413.876" y2="395.693" gradientUnits="userSpaceOnUse">
<stop stop-color="#2E378D"/>
<stop offset="1" stop-color="#D9D9D9" stop-opacity="0"/>
</linearGradient>
<linearGradient id="paint1_linear_2_28" x1="412.833" y1="0" x2="412.833" y2="202.401" gradientUnits="userSpaceOnUse">
<stop stop-color="#2E378D"/>
<stop offset="1" stop-color="#D9D9D9" stop-opacity="0"/>
</linearGradient>
<linearGradient id="paint2_linear_2_28" x1="412.833" y1="0" x2="412.833" y2="202.401" gradientUnits="userSpaceOnUse">
<stop stop-color="#2E378D"/>
<stop offset="1" stop-color="#D9D9D9" stop-opacity="0"/>
</linearGradient>
<linearGradient id="paint3_linear_2_28" x1="412.833" y1="0" x2="412.833" y2="202.401" gradientUnits="userSpaceOnUse">
<stop stop-color="#2E378D"/>
<stop offset="1" stop-color="#D9D9D9" stop-opacity="0"/>
</linearGradient>
<linearGradient id="paint4_linear_2_28" x1="412.833" y1="0" x2="412.833" y2="202.401" gradientUnits="userSpaceOnUse">
<stop stop-color="#2E378D"/>
<stop offset="1" stop-color="#D9D9D9" stop-opacity="0"/>
</linearGradient>
<linearGradient id="paint5_linear_2_28" x1="412.833" y1="0" x2="412.833" y2="202.401" gradientUnits="userSpaceOnUse">
<stop stop-color="#2E378D"/>
<stop offset="1" stop-color="#D9D9D9" stop-opacity="0"/>
</linearGradient>
<linearGradient id="paint6_linear_2_28" x1="413.876" y1="88.2662" x2="413.876" y2="290.667" gradientUnits="userSpaceOnUse">
<stop stop-color="#2E378D"/>
<stop offset="1" stop-color="#D9D9D9" stop-opacity="0"/>
</linearGradient>
<linearGradient id="paint7_linear_2_28" x1="413.876" y1="37.4922" x2="413.876" y2="239.893" gradientUnits="userSpaceOnUse">
<stop stop-color="#2E378D"/>
<stop offset="1" stop-color="#D9D9D9" stop-opacity="0"/>
</linearGradient>
</defs>
</svg>
